<?xml version="1.0" encoding="UTF-8"?>
<svg version="1.1" xmlns="http://www.w3.org/2000/svg" width="907" height="185">
<path d="M0 0 C0.84417984 -0.00525696 1.68835968 -0.01051392 2.55812073 -0.01593018 C5.35208571 -0.02914761 8.14548222 -0.020386 10.93945312 -0.01025391 C12.87854115 -0.01227414 14.81762844 -0.01518516 16.75671387 -0.01895142 C20.82209502 -0.02337713 24.88727852 -0.01693574 28.95263672 -0.00292969 C34.16844158 0.01416231 39.38378336 0.00432245 44.59957123 -0.01364708 C48.60410055 -0.02447822 52.60851976 -0.02104165 56.61305237 -0.0132637 C58.53642328 -0.01125984 60.45980414 -0.01372747 62.38316345 -0.02070236 C65.06951449 -0.02830582 67.75511149 -0.01672835 70.44140625 0 C71.23942154 -0.00607269 72.03743683 -0.01214539 72.8596344 -0.0184021 C75.77418179 0.01528861 78.12742282 0.06118135 80.71389771 1.48678589 C82.25780834 4.40253116 82.10259188 6.91362352 82.10888672 10.19873047 C82.11414368 10.88685318 82.11940063 11.57497589 82.12481689 12.28395081 C82.13802055 14.55850932 82.12927808 16.83236796 82.11914062 19.10693359 C82.12116127 20.68729792 82.12407263 22.26766133 82.12783813 23.84802246 C82.13226196 27.16016518 82.12582873 30.47206518 82.11181641 33.78417969 C82.09472427 38.03147449 82.10456517 42.27820061 82.1225338 46.52547455 C82.13337018 49.78884167 82.12992601 53.05207378 82.12215042 56.31544495 C82.120148 57.88155688 82.12260918 59.44768103 82.12958908 61.01377869 C82.13720143 63.20206203 82.12560373 65.38942221 82.10888672 67.57763672 C82.10649994 68.82323364 82.10411316 70.06883057 82.10165405 71.35217285 C81.72070312 74.38818359 81.72070312 74.38818359 80.33140564 76.2603302 C78.28224696 77.69520135 76.43050772 78.27963732 74.01367188 78.93115234 C73.04985596 79.19613525 72.08604004 79.46111816 71.09301758 79.73413086 C70.04202881 80.01184326 68.99104004 80.28955566 67.90820312 80.57568359 C66.80887451 80.87466553 65.7095459 81.17364746 64.5769043 81.48168945 C60.96105845 82.46161885 57.34128695 83.42591793 53.72070312 84.38818359 C51.20240096 85.06239017 48.68417241 85.73687175 46.16601562 86.41162109 C41.10268765 87.76605323 36.03728581 89.11238987 30.97070312 90.45458984 C26.3184142 91.68989108 21.67266032 92.94537837 17.03320312 94.22802734 C16.01379639 94.50960693 14.99438965 94.79118652 13.9440918 95.08129883 C12.05531702 95.60485839 10.16740098 96.13152967 8.28051758 96.66186523 C7.45253662 96.89123779 6.62455566 97.12061035 5.77148438 97.35693359 C5.05645752 97.55738281 4.34143066 97.75783203 3.60473633 97.96435547 C1.72070313 98.38818359 1.72070313 98.38818359 -1.27929688 98.38818359 C-1.27929688 103.99818359 -1.27929688 109.60818359 -1.27929688 115.38818359 C5.29650073 113.64769062 11.87200487 111.90609424 18.44726562 110.16357422 C20.67342671 109.57376947 22.89966099 108.98424089 25.12597656 108.39501953 C28.368694 107.53673931 31.61117412 106.67757036 34.85351562 105.81787109 C35.92208801 105.53466003 36.9906604 105.25144897 38.09161377 104.95965576 C43.45910323 103.53351514 48.82162576 102.0915407 54.17675781 100.61962891 C55.19430145 100.33999298 56.21184509 100.06035706 57.26022339 99.77224731 C59.18710119 99.24120232 61.11334245 98.70784063 63.03884888 98.17184448 C63.89147308 97.93660065 64.74409729 97.70135681 65.62255859 97.45898438 C66.36907684 97.25137482 67.11559509 97.04376526 67.88473511 96.8298645 C69.72070312 96.38818359 69.72070312 96.38818359 71.72070312 96.38818359 C71.9759375 95.61990234 72.23117188 94.85162109 72.49414062 94.06005859 C74.58162553 89.51279847 78.5225433 87.87292124 82.72070312 85.38818359 C83.66478027 84.81318115 83.66478027 84.81318115 84.62792969 84.2265625 C86.7316675 82.94932857 88.84861091 81.69715289 90.97070312 80.45068359 C91.65600098 80.03657227 92.34129883 79.62246094 93.04736328 79.19580078 C97.99795312 76.35757533 97.99795312 76.35757533 101.58007812 76.50927734 C103.72070312 77.38818359 103.72070312 77.38818359 105.72070312 79.38818359 C105.54874793 82.302127 105.27400417 83.85410393 103.14648438 85.90771484 C102.44910156 86.33439453 101.75171875 86.76107422 101.03320312 87.20068359 C100.26274658 87.70196777 99.49229004 88.20325195 98.69848633 88.71972656 C95.72070313 90.38818359 95.72070313 90.38818359 92.18115234 91.48706055 C87.80894267 93.12082583 84.45570896 94.49885381 81.72070312 98.38818359 C79.19301657 107.1186124 80.22433573 116.78704843 80.53320312 125.76318359 C80.60401 129.54067022 80.65532786 133.31766595 80.6940155 137.09561157 C80.7244273 139.44202852 80.77713741 141.78828023 80.85395813 144.13363647 C80.87935165 145.18878448 80.90474518 146.2439325 80.9309082 147.33105469 C80.96203201 148.26178802 80.99315582 149.19252136 81.02522278 150.15145874 C80.92473129 150.88957794 80.82423981 151.62769714 80.72070312 152.38818359 C76.95334725 154.89975418 73.98713349 154.66963353 69.625 154.64697266 C68.38799095 154.65222961 68.38799095 154.65222961 67.12599182 154.65759277 C64.39706024 154.66640309 61.6683874 154.66056342 58.93945312 154.65380859 C57.0452062 154.65515545 55.15095961 154.65709615 53.25671387 154.65960693 C49.28552969 154.66255725 45.31443545 154.65826351 41.34326172 154.64892578 C36.24861238 154.63753131 31.15417377 154.64409128 26.05953217 154.65607071 C22.14766853 154.6632918 18.235855 154.66100023 14.32398987 154.65581512 C12.44527664 154.65447932 10.5665589 154.65612394 8.68785095 154.66077423 C6.06391318 154.66584352 3.44031843 154.65812358 0.81640625 154.64697266 C-0.35256447 154.65304535 -0.35256447 154.65304535 -1.54515076 154.65924072 C-5.33015437 154.6293857 -7.05050586 154.54071094 -10.27929688 152.38818359 C-10.6602478 149.89002991 -10.6602478 149.89002991 -10.66748047 146.70092773 C-10.68166519 144.91381126 -10.68166519 144.91381126 -10.69613647 143.09059143 C-10.69006378 141.79789841 -10.68399109 140.50520538 -10.67773438 139.17333984 C-10.67975477 137.83816875 -10.68266592 136.50299873 -10.68643188 135.16783142 C-10.69085848 132.36755889 -10.68441489 129.5675732 -10.67041016 126.76733398 C-10.65333408 123.17800284 -10.66314651 119.58934541 -10.68112755 116.0000391 C-10.69197078 113.24192738 -10.6885164 110.48397523 -10.68074417 107.72585869 C-10.67776911 105.75880878 -10.68688145 103.79175267 -10.69613647 101.82472229 C-10.68667999 100.63015915 -10.67722351 99.43559601 -10.66748047 98.20483398 C-10.66509369 97.15163467 -10.66270691 96.09843536 -10.6602478 95.01332092 C-10.27929687 92.38818359 -10.27929687 92.38818359 -9.12289429 90.63949585 C-6.64137765 88.95520612 -4.2937815 88.32031036 -1.39355469 87.55053711 C-0.18088928 87.22332169 1.03177612 86.89610626 2.28118896 86.55897522 C3.60993091 86.21147184 4.93872881 85.86418239 6.26757812 85.51708984 C7.64006975 85.15070706 9.0123197 84.78341784 10.38433838 84.41526794 C14.00612396 83.44605544 17.63105249 82.4891534 21.2567749 81.53479004 C24.89122853 80.57590268 28.5226378 79.60563726 32.15429688 78.63623047 C37.52864819 77.20302572 42.90456253 75.77595087 48.28222656 74.35522461 C55.76447596 72.37660824 63.24258283 70.382349 70.72070312 68.38818359 C71.05070312 48.91818359 71.38070312 29.44818359 71.72070312 9.38818359 C47.63070312 9.38818359 23.54070313 9.38818359 -1.27929688 9.38818359 C-1.16054084 30.3156675 -1.16054084 30.3156675 -1.0090332 51.24291992 C-1.00027399 53.86034785 -0.99262872 56.47777984 -0.98632812 59.09521484 C-0.97848801 59.7757341 -0.97064789 60.45625336 -0.96257019 61.15739441 C-0.94062751 63.1623611 -0.93928031 65.16752074 -0.9387207 67.17260742 C-0.93205887 68.30289871 -0.92539703 69.43319 -0.91853333 70.59773254 C-1.27929688 73.38818359 -1.27929688 73.38818359 -2.60527039 75.28837585 C-4.27929688 76.38818359 -4.27929688 76.38818359 -7.40429688 76.20068359 C-8.35304688 75.93255859 -9.30179688 75.66443359 -10.27929688 75.38818359 C-11.72069284 72.50539167 -11.42254801 70.00431118 -11.44042969 66.78295898 C-11.44539459 66.10473587 -11.4503595 65.42651276 -11.45547485 64.72773743 C-11.47009991 62.48042798 -11.47689848 60.23318909 -11.48242188 57.98583984 C-11.4881724 56.42646787 -11.49393015 54.86709592 -11.49969482 53.307724 C-11.51020534 50.03677032 -11.51604788 46.76584124 -11.51953125 43.49487305 C-11.52502061 39.30029131 -11.54905756 35.10603343 -11.5775032 30.91155338 C-11.59611038 27.69025212 -11.60133411 24.46902923 -11.60286713 21.24767876 C-11.60589781 19.70108708 -11.61394033 18.15449691 -11.62705231 16.60795784 C-11.64407574 14.44598727 -11.64224235 12.28481282 -11.63574219 10.12280273 C-11.63938782 8.8919545 -11.64303345 7.66110626 -11.64678955 6.39295959 C-11.27929688 3.38818359 -11.27929688 3.38818359 -10.2744751 1.49153137 C-7.02374331 -0.30614648 -3.61963993 -0.02754454 0 0 Z M60.72070312 110.38818359 C60.72070312 116.65818359 60.72070312 122.92818359 60.72070312 129.38818359 C64.35070312 129.38818359 67.98070313 129.38818359 71.72070312 129.38818359 C71.72070312 122.12818359 71.72070312 114.86818359 71.72070312 107.38818359 C67.76486709 107.21262187 67.76486709 107.21262187 60.72070312 110.38818359 Z M45.65820312 113.88818359 C44.35882813 114.38318359 43.05945312 114.87818359 41.72070312 115.38818359 C41.72070312 120.00818359 41.72070312 124.62818359 41.72070312 129.38818359 C44.69070312 129.38818359 47.66070312 129.38818359 50.72070312 129.38818359 C50.72070312 123.77818359 50.72070312 118.16818359 50.72070312 112.38818359 C48.93189075 112.38818359 47.31239632 113.25801476 45.65820312 113.88818359 Z M20.72070312 120.38818359 C20.72070312 123.35818359 20.72070312 126.32818359 20.72070312 129.38818359 C24.35070313 129.38818359 27.98070312 129.38818359 31.72070312 129.38818359 C31.72070312 125.75818359 31.72070312 122.12818359 31.72070312 118.38818359 C27.63692236 118.38818359 24.597544 119.19530948 20.72070312 120.38818359 Z M4.15820312 124.88818359 C3.14628906 125.16662109 2.134375 125.44505859 1.09179688 125.73193359 C0.30933594 125.94849609 -0.473125 126.16505859 -1.27929688 126.38818359 C-1.27929688 127.37818359 -1.27929688 128.36818359 -1.27929688 129.38818359 C2.68070313 129.38818359 6.64070313 129.38818359 10.72070312 129.38818359 C10.72070312 127.40818359 10.72070312 125.42818359 10.72070312 123.38818359 C8.52221378 123.38818359 6.25448118 124.30989999 4.15820312 124.88818359 Z M-1.27929688 138.38818359 C-1.27929688 140.69818359 -1.27929688 143.00818359 -1.27929688 145.38818359 C2.68070313 145.38818359 6.64070313 145.38818359 10.72070312 145.38818359 C10.72070312 143.07818359 10.72070312 140.76818359 10.72070312 138.38818359 C6.76070312 138.38818359 2.80070313 138.38818359 -1.27929688 138.38818359 Z M20.72070312 138.38818359 C20.72070312 140.69818359 20.72070312 143.00818359 20.72070312 145.38818359 C24.35070313 145.38818359 27.98070312 145.38818359 31.72070312 145.38818359 C31.72070312 143.07818359 31.72070312 140.76818359 31.72070312 138.38818359 C28.09070312 138.38818359 24.46070313 138.38818359 20.72070312 138.38818359 Z M41.72070312 138.38818359 C41.72070312 140.69818359 41.72070312 143.00818359 41.72070312 145.38818359 C44.69070312 145.38818359 47.66070312 145.38818359 50.72070312 145.38818359 C50.72070312 143.07818359 50.72070312 140.76818359 50.72070312 138.38818359 C47.75070313 138.38818359 44.78070313 138.38818359 41.72070312 138.38818359 Z M60.72070312 138.38818359 C60.72070312 140.69818359 60.72070312 143.00818359 60.72070312 145.38818359 C64.35070312 145.38818359 67.98070313 145.38818359 71.72070312 145.38818359 C71.72070312 143.07818359 71.72070312 140.76818359 71.72070312 138.38818359 C68.09070313 138.38818359 64.46070312 138.38818359 60.72070312 138.38818359 Z " fill="#49A6E6" transform="translate(11.279296875,-0.38818359375)"/>
<path d="M0 0 C0.74378906 0.54785156 1.48757813 1.09570312 2.25390625 1.66015625 C9.33914188 7.34716701 14.38899231 14.97712017 15.94140625 24.01953125 C16 26 16 26 15 29 C13 31 13 31 10.125 32 C6.32385067 32 4.99501549 31.30677897 2 29 C0.55859375 26.0390625 0.55859375 26.0390625 -0.5625 22.625 C-3.33819322 14.26910692 -7.31805707 9.99461032 -15 6 C-25.84993961 1.66002416 -40.03565031 1.67785414 -50.828125 6.1796875 C-53.2659872 7.3843621 -55.63328603 8.6622921 -58 10 C-58.7115625 10.2990625 -59.423125 10.598125 -60.15625 10.90625 C-62.4834776 12.28680874 -62.94595487 13.54361657 -64 16 C-64.7833068 17.1722959 -65.57538075 18.3387695 -66.375 19.5 C-75.60663936 34.11221022 -75.79492322 53.49909873 -72.8125 70.0625 C-70.30952027 80.96750089 -65.80628235 90.15709008 -56.125 96.25 C-48.84970203 100.60114284 -41.97270125 101.3422387 -33.6875 101.3125 C-32.3581543 101.33666992 -32.3581543 101.33666992 -31.00195312 101.36132812 C-22.95840769 101.36719504 -14.53417589 100.03959124 -8 95 C-1.6378871 86.97625291 1.65870309 77.15289491 3.109375 67.14453125 C3.36412598 65.4116687 3.36412598 65.4116687 3.62402344 63.64379883 C3.81013184 62.33511841 3.81013184 62.33511841 4 61 C2.93040039 61.02094727 1.86080078 61.04189453 0.75878906 61.06347656 C-3.21438173 61.13594626 -7.18749425 61.18182463 -11.16113281 61.21972656 C-12.87998279 61.23982628 -14.59876452 61.26711089 -16.31738281 61.30175781 C-18.78988489 61.35035034 -21.2614821 61.37298435 -23.734375 61.390625 C-24.88459137 61.42159271 -24.88459137 61.42159271 -26.05804443 61.45318604 C-29.57819289 61.45466224 -31.61878681 61.27191533 -34.52050781 59.20214844 C-36 57 -36 57 -35.9375 53.375 C-35 50 -35 50 -32 48 C-30.04043579 47.73930359 -30.04043579 47.73930359 -27.79150391 47.7253418 C-26.94697662 47.71580978 -26.10244934 47.70627777 -25.23233032 47.69645691 C-24.32292694 47.69736832 -23.41352356 47.69827972 -22.4765625 47.69921875 C-21.53823578 47.69493362 -20.59990906 47.6906485 -19.63314819 47.68623352 C-17.64769294 47.68048961 -15.66221664 47.67999041 -13.67675781 47.68432617 C-10.6435131 47.68748075 -7.61124872 47.66404645 -4.578125 47.63867188 C-2.64843873 47.63639831 -0.71874984 47.63569565 1.2109375 47.63671875 C2.11629242 47.627509 3.02164734 47.61829926 3.95443726 47.60881042 C8.71474052 47.64365978 12.27405737 47.68749874 16 51 C17.70709022 54.51847493 18.25747809 57.37055086 18.29052734 61.26171875 C18.30328705 62.28628174 18.31604675 63.31084473 18.32919312 64.36645508 C18.33141876 65.4623999 18.33364441 66.55834473 18.3359375 67.6875 C18.3459227 69.39039185 18.3459227 69.39039185 18.35610962 71.12768555 C18.36622222 73.52488588 18.37092707 75.92211429 18.37060547 78.31933594 C18.37498424 81.98679829 18.41133597 85.6530625 18.44921875 89.3203125 C18.45508601 91.65103756 18.45905601 93.98176832 18.4609375 96.3125 C18.47530853 97.40844482 18.48967957 98.50438965 18.50448608 99.63354492 C18.4590292 107.20245045 18.4590292 107.20245045 16.15869141 111.19921875 C14 113 14 113 11 113.5 C7.63821617 112.93970269 6.39466377 112.38963296 4 110 C3.390625 107.08203125 3.390625 107.08203125 3.25 103.8125 C3.19328125 102.72582031 3.1365625 101.63914062 3.078125 100.51953125 C3.05234375 99.68808594 3.0265625 98.85664063 3 98 C2.6596875 98.51949219 2.319375 99.03898437 1.96875 99.57421875 C-4.24173311 108.51004684 -11.89080357 111.97623894 -22.23828125 114.55859375 C-36.77393985 116.88183197 -51.11336443 114.88393824 -63.59375 106.8203125 C-77.52515591 96.28129439 -86.19792823 82.70956674 -88.68359375 65.421875 C-90.78225308 42.72526297 -86.53903472 23.38253395 -72.1875 5.25 C-54.07940835 -14.77937459 -20.89184748 -15.48378835 0 0 Z " fill="#49A5E5" transform="translate(889,45)"/>
<path d="M0 0 C4.09483006 2.73888073 6.35171571 5.72258963 8.84375 9.93359375 C9.18378052 10.50331406 9.52381104 11.07303436 9.87414551 11.66001892 C10.92761972 13.43353064 11.965763 15.21521266 13 17 C13.62132812 18.06621582 14.24265625 19.13243164 14.8828125 20.23095703 C16.7704457 23.49967505 18.63785471 26.77920024 20.5 30.0625 C21.19173167 31.27797106 21.88371375 32.49329965 22.57592773 33.70849609 C24.00718036 36.22160316 25.43738122 38.73530386 26.86669922 41.24951172 C30.2574042 47.21251556 33.6600906 53.16866972 37.0625 59.125 C37.92488281 60.63719116 37.92488281 60.63719116 38.8046875 62.17993164 C45.82629289 74.47825819 52.9185964 86.73604718 60 99 C60.00808685 97.84599197 60.01617371 96.69198395 60.02450562 95.50300598 C60.10197969 84.62923392 60.18972232 73.75558679 60.28752708 62.88197803 C60.3374796 57.29170528 60.38380988 51.70145133 60.421875 46.11108398 C60.45874078 40.7163961 60.50510454 35.32186591 60.55806351 29.92731285 C60.57660052 27.8688604 60.59171104 25.81037415 60.60334396 23.75187111 C60.62021806 20.86932848 60.64925631 17.98714644 60.68115234 15.10473633 C60.68331253 14.25309402 60.68547272 13.40145172 60.68769836 12.52400208 C60.7476016 8.28813817 60.8934028 4.80011845 63 1 C66.04983996 -0.52491998 68.6423369 -0.23562548 72 0 C74.22877334 1.59275881 74.9125033 2.48547266 75.37473011 5.20361328 C75.3744785 6.49887939 75.3744785 6.49887939 75.3742218 7.8203125 C75.38123611 8.81297119 75.38825043 9.80562988 75.39547729 10.82836914 C75.38783356 11.91625732 75.38018982 13.00414551 75.37231445 14.125 C75.37596512 15.27154053 75.37961578 16.41808105 75.38337708 17.59936523 C75.3915013 21.39972621 75.37785644 25.19966331 75.36328125 29 C75.36276287 31.63411458 75.36327971 34.26822955 75.36479187 36.90234375 C75.36567492 42.42713509 75.35459228 47.95180375 75.33618164 53.4765625 C75.31501378 59.86533074 75.31150405 66.25391925 75.3177436 72.64271545 C75.32343705 78.7867398 75.31768758 84.93069063 75.30657005 91.07470703 C75.30271278 93.69026433 75.30157201 96.30582705 75.3031559 98.92138672 C75.30352554 102.57269695 75.29093446 106.22373111 75.2746582 109.875 C75.27713562 110.96288818 75.27961304 112.05077637 75.28216553 113.17163086 C75.27508072 114.16428955 75.26799591 115.15694824 75.26069641 116.1796875 C75.25761711 117.47495361 75.25761711 117.47495361 75.25447559 118.79638672 C75 121 75 121 73 124 C71.046875 124.7578125 71.046875 124.7578125 68.75 125.125 C68.00234375 125.27195312 67.2546875 125.41890625 66.484375 125.5703125 C60.97815166 124.30630526 57.57271405 117.63354272 54.73144531 113.12109375 C54.18375488 112.22583984 54.18375488 112.22583984 53.625 111.3125 C53.2134668 110.64734375 52.80193359 109.9821875 52.37792969 109.296875 C47.09192903 100.65329209 42.13208416 91.81509822 37.12817383 83.00648499 C32.60357296 75.04199775 28.01579957 67.11629846 23.38882446 59.21075439 C19.1097099 51.89936478 14.8379722 44.58370618 10.5703125 37.265625 C9.93359619 36.1739502 9.29687988 35.08227539 8.64086914 33.95751953 C7.09384039 31.30505522 5.54688493 28.65254819 4 26 C3.99413376 27.15400803 3.98826752 28.30801605 3.98222351 29.49699402 C3.9250182 40.37080487 3.85226792 51.24441531 3.76428509 62.11802197 C3.71955177 67.70830533 3.68030204 73.29851532 3.65356445 78.88891602 C3.62756123 84.28365849 3.58717964 89.67811903 3.53681374 95.07268715 C3.5201249 97.13113207 3.5086232 99.18962577 3.50238609 101.24812889 C3.49276707 104.13080803 3.46473375 107.01276259 3.43237305 109.89526367 C3.43380814 110.74690598 3.43524323 111.59854828 3.4367218 112.47599792 C3.35579443 117.57110728 2.78122558 121.21877442 -1 125 C-4.375 125.3125 -4.375 125.3125 -8 125 C-10.82614898 122.15524619 -11.37646187 120.04642915 -11.38768005 116.10412598 C-11.39758469 115.11995193 -11.40748932 114.13577789 -11.41769409 113.1217804 C-11.41319244 112.04840927 -11.4086908 110.97503815 -11.40405273 109.86914062 C-11.41091599 108.73381393 -11.41777924 107.59848724 -11.42485046 106.42875671 C-11.44317116 102.67112773 -11.43927361 98.91391412 -11.43359375 95.15625 C-11.43815269 92.54837914 -11.44345739 89.94050949 -11.44947815 87.3326416 C-11.45950786 81.86511247 -11.45620734 76.39770161 -11.44604492 70.93017578 C-11.43455937 64.61116571 -11.44864668 58.29257984 -11.4754414 51.97362566 C-11.50026333 45.89204972 -11.50277784 39.81066963 -11.49632454 33.72904968 C-11.49617088 31.14221999 -11.5022518 28.5553823 -11.51461601 25.96858215 C-11.52945199 22.35568439 -11.51890251 18.7437272 -11.50170898 15.13085938 C-11.51137695 14.05748825 -11.52104492 12.98411713 -11.53100586 11.8782196 C-11.45901203 4.6732706 -11.45901203 4.6732706 -9.18348694 1.33557129 C-5.93176446 -0.65340657 -3.73584032 -0.52432847 0 0 Z " fill="#49A5E6" transform="translate(701,35)"/>
<path d="M0 0 C1.22807373 -0.00637985 2.45614746 -0.0127597 3.72143555 -0.01933289 C5.05777955 -0.02086143 6.39412408 -0.02197546 7.73046875 -0.02270508 C9.10522496 -0.02591975 10.47998083 -0.02928398 11.85473633 -0.03279114 C14.73291823 -0.03877164 17.61107014 -0.04063207 20.48925781 -0.04003906 C24.17468557 -0.03993733 27.85992117 -0.05360586 31.54530334 -0.07081127 C34.38318768 -0.08193475 37.22102554 -0.08395819 40.05892944 -0.08342934 C41.4176805 -0.0846083 42.77643281 -0.0890254 44.13516235 -0.0967617 C46.03539544 -0.10657101 47.93568506 -0.10241685 49.8359375 -0.09765625 C50.91641357 -0.09908127 51.99688965 -0.10050629 53.11010742 -0.10197449 C55.95347 0.14838963 57.5978332 0.4962158 59.91796875 2.14526367 C60.91796875 5.52026367 60.91796875 5.52026367 60.91796875 9.14526367 C58.82794323 11.97050585 57.61341326 13.01758175 54.12788391 13.65751648 C53.05612411 13.66338272 51.98436432 13.66924896 50.88012695 13.67529297 C49.6623909 13.69178391 48.44465485 13.70827484 47.1900177 13.7252655 C45.87949936 13.72335709 44.56898102 13.72144867 43.21875 13.71948242 C41.85920919 13.7319289 40.49968446 13.74626351 39.1401825 13.7624054 C35.56819325 13.80040169 31.99648125 13.81561525 28.42431641 13.82519531 C22.69613071 13.84495647 16.96815602 13.90166382 11.24019432 13.95395851 C9.23652674 13.9693459 7.23279684 13.97576384 5.2290802 13.98210144 C4.02080063 13.98913589 2.81252106 13.99617035 1.56762695 14.00341797 C0.49825394 14.00689743 -0.57111908 14.01037689 -1.67289734 14.01396179 C-4.0330437 13.87375028 -4.0330437 13.87375028 -5.08203125 15.14526367 C-5.24213606 17.88227545 -5.34149953 20.59693958 -5.3984375 23.33666992 C-5.4192186 24.15650864 -5.43999969 24.97634735 -5.46141052 25.82102966 C-5.52699619 28.44985268 -5.58583251 31.07877871 -5.64453125 33.70776367 C-5.68770792 35.48576928 -5.73132192 37.26376433 -5.77539062 39.04174805 C-5.88268668 43.40948001 -5.98392829 47.77731594 -6.08203125 52.14526367 C-5.37903397 52.13638123 -4.67603668 52.12749878 -3.95173645 52.11834717 C2.68360873 52.03809373 9.31881785 51.97724506 15.9545393 51.93801498 C19.36581874 51.91716791 22.77669609 51.8889047 26.18774414 51.84350586 C30.11209244 51.79160408 34.03627971 51.77229446 37.9609375 51.75463867 C39.18193649 51.73399353 40.40293549 51.71334839 41.66093445 51.69207764 C42.80173965 51.69177551 43.94254486 51.69147339 45.11791992 51.69116211 C46.11941574 51.68227966 47.12091156 51.67339722 48.15275574 51.66424561 C51.64310277 52.27140316 53.34745544 53.77423246 55.91796875 56.14526367 C55.42976434 61.6375633 55.42976434 61.6375633 53.22650146 63.82319641 C50.35663601 65.46673178 48.52908084 65.50772681 45.23144531 65.48583984 C43.52012421 65.48549995 43.52012421 65.48549995 41.77423096 65.4851532 C40.54807068 65.46966934 39.3219104 65.45418549 38.05859375 65.43823242 C36.79907898 65.43398758 35.53956421 65.42974274 34.24188232 65.42536926 C30.90108337 65.41142488 27.56090291 65.38449293 24.22027588 65.35125732 C20.80836415 65.32051207 17.39638651 65.30668985 13.984375 65.29174805 C7.29522525 65.26121328 0.60715673 65.20249057 -6.08203125 65.14526367 C-5.75203125 78.67526367 -5.42203125 92.20526367 -5.08203125 106.14526367 C-2.35328884 107.50963488 -0.17399544 107.28503354 2.88061523 107.30297852 C4.13208847 107.31324066 5.38356171 107.32350281 6.67295837 107.33407593 C7.67885671 107.33923281 7.67885671 107.33923281 8.70507622 107.34449387 C10.80226492 107.35627534 12.89924699 107.37572521 14.99635315 107.39761353 C20.95916893 107.45926036 26.92196311 107.51330786 32.88500977 107.54663086 C36.53145331 107.56755803 40.17751949 107.60284341 43.82374763 107.64738846 C45.21397528 107.66156313 46.60426967 107.67027422 47.99456596 107.67344284 C49.9384345 107.67834259 51.88222246 107.70309447 53.82592773 107.72875977 C54.93242172 107.73684662 56.03891571 107.74493347 57.17893982 107.75326538 C59.91796875 108.14526367 59.91796875 108.14526367 61.77528381 109.48379517 C63.56115753 112.08046276 63.30023538 114.08713066 62.91796875 117.14526367 C61.80474854 118.80751038 61.80474854 118.80751038 59.91796875 120.14526367 C56.98480225 120.53294373 56.98480225 120.53294373 53.35449219 120.54931641 C52.69230179 120.55617966 52.03011139 120.56304291 51.34785461 120.57011414 C49.15746638 120.58842214 46.96779215 120.58453746 44.77734375 120.57885742 C43.25140144 120.58341918 41.72546119 120.58872474 40.19952393 120.59474182 C36.99832833 120.60368212 33.79738203 120.6012417 30.59619141 120.59130859 C26.50610063 120.57985062 22.41687729 120.5999759 18.32690048 120.62922573 C15.17316264 120.64763551 12.01963049 120.64728528 8.86585236 120.64158821 C7.35885659 120.6414354 5.85184652 120.64744639 4.34490204 120.65987968 C-10.76130992 120.76690186 -10.76130992 120.76690186 -16.08203125 116.14526367 C-20.03666473 110.50896671 -20.66276006 106.34948833 -20.59960938 99.55737305 C-20.60661865 98.62149857 -20.61362793 97.68562408 -20.62084961 96.72138977 C-20.63838089 93.64362465 -20.62682391 90.56678731 -20.61328125 87.48901367 C-20.61597756 85.34102198 -20.61986113 83.19303147 -20.62487793 81.04504395 C-20.6307664 76.54952338 -20.62223078 72.05432135 -20.60351562 67.55883789 C-20.58072676 61.80536289 -20.5938533 56.05263434 -20.61780548 50.29918671 C-20.63228089 45.86556404 -20.62764941 41.43211744 -20.61729431 36.99848938 C-20.61463186 34.87746593 -20.61787979 32.75642634 -20.62721252 30.63542175 C-20.63740659 27.66757043 -20.62183658 24.70091675 -20.59960938 21.7331543 C-20.6077063 20.86229691 -20.61580322 19.99143951 -20.62414551 19.0941925 C-20.54397406 13.29647248 -19.44536822 9.90384731 -16.08203125 5.14526367 C-10.66454415 0.85641972 -6.76626661 0.02387063 0 0 Z " fill="#49A6E5" transform="translate(276.08203125,36.854736328125)"/>
<path d="M0 0 C5.02871605 3.41448041 7.19278531 6.63901472 9.171875 12.390625 C9.45311218 13.15763733 9.73434937 13.92464966 10.02410889 14.71490479 C10.66672384 16.47351798 11.3009442 18.23521266 11.9284668 19.99926758 C13.10852059 23.30390215 14.31871932 26.59653797 15.53320312 29.88867188 C18.20813209 37.14953311 20.85728657 44.41958308 23.50140381 51.69171143 C24.97796304 55.75155708 26.45667941 59.81061783 27.93618011 63.8693924 C29.15771351 67.22090673 30.37714573 70.57315296 31.59191895 73.92712402 C33.82687078 80.09035521 36.0812506 86.24400086 38.41417313 92.37093735 C39.46475604 95.1315256 40.50558129 97.8957519 41.54613495 100.66013336 C42.04124839 101.96626859 42.54145276 103.27048691 43.04706573 104.57259369 C43.74555639 106.37197471 44.4254401 108.17854512 45.10449219 109.98535156 C45.49578308 111.00550354 45.88707397 112.02565552 46.29022217 113.07672119 C47.10620248 116.43740371 46.84215838 118.66720775 46 122 C44.8125 123.875 44.8125 123.875 43 125 C40.0625 125.5 40.0625 125.5 37 125 C33.54772169 121.41009764 31.93211971 117.78007191 30.2734375 113.125 C30.03968414 112.47805176 29.80593079 111.83110352 29.56509399 111.16455078 C28.82592766 109.11284061 28.10015526 107.05669868 27.375 105 C26.63964916 102.94449174 25.90161355 100.8899605 25.16348267 98.83544922 C24.4958893 96.97253284 23.83444331 95.10741686 23.17333984 93.2421875 C22.17150384 90.47390158 21.09337076 87.73342691 20 85 C4.49 85 -11.02 85 -27 85 C-31.06856006 96.28780537 -31.06856006 96.28780537 -35.10620117 107.58666992 C-35.625682 109.01000788 -36.14620293 110.43296683 -36.66796875 111.85546875 C-36.92308228 112.58560181 -37.1781958 113.31573486 -37.44104004 114.06799316 C-39.16613563 118.71918021 -41.05271834 121.79048454 -45 125 C-48.125 125.5 -48.125 125.5 -51 125 C-52.68237305 123.71247864 -52.68237305 123.71247864 -54 122 C-53.91494174 114.28047971 -51.34058847 107.57179177 -48.6875 100.39453125 C-48.02571999 98.56754951 -48.02571999 98.56754951 -47.35057068 96.70365906 C-46.15901103 93.41534883 -44.95505842 90.13171494 -43.74793625 86.84909058 C-42.49424343 83.43535179 -41.24984295 80.01822678 -40.00415039 76.6015625 C-38.23482115 71.75196144 -36.46084328 66.90409874 -34.68205738 62.0579586 C-32.14128798 55.13469292 -29.6258766 48.20292241 -27.13461304 41.26164246 C-25.60241619 36.99596048 -24.05900256 32.73439756 -22.51293945 28.47372437 C-21.80012496 26.5027033 -21.09173551 24.53007591 -20.38793945 22.55581665 C-19.4162498 19.83433468 -18.42724751 17.11977517 -17.43359375 14.40625 C-17.01925331 13.2261158 -17.01925331 13.2261158 -16.59654236 12.0221405 C-13.53116154 3.7731621 -9.19655264 -0.91965526 0 0 Z M-4 20 C-5.74224122 24.54888413 -7.48373559 29.09805331 -9.22460938 33.64746094 C-9.81393443 35.18724843 -10.40344537 36.72696479 -10.99316406 38.26660156 C-12.71295755 42.75684736 -14.42895466 47.24851303 -16.13977051 51.7421875 C-16.7213437 53.26862113 -17.30397305 54.7946527 -17.88757324 56.3203125 C-18.73822042 58.54564418 -19.58448914 60.77259406 -20.4296875 63 C-20.68928253 63.67675781 -20.94887756 64.35351562 -21.21633911 65.05078125 C-22.55535148 68.43075796 -22.55535148 68.43075796 -23 72 C-10.13 72 2.74 72 16 72 C13.77433879 64.41368888 13.77433879 64.41368888 11.19067383 57.00927734 C10.87056839 56.16916107 10.55046295 55.3290448 10.22065735 54.46347046 C9.88616074 53.59638458 9.55166412 52.72929871 9.20703125 51.8359375 C8.68069344 50.45881088 8.68069344 50.45881088 8.14372253 49.05386353 C7.03666682 46.15961211 5.92467673 43.26728688 4.8125 40.375 C4.05500958 38.39726138 3.29784512 36.41939788 2.54101562 34.44140625 C0.69777141 29.62615388 -1.14989657 24.81262088 -3 20 C-3.33 20 -3.66 20 -4 20 Z " fill="#49A6E6" transform="translate(625,35)"/>
<path d="M0 0 C3.49493995 3.52621818 4.50221696 5.87496204 4.54589844 10.80004883 C4.56561707 11.94085403 4.58533569 13.08165924 4.60565186 14.2570343 C4.60688049 15.47803329 4.60810913 16.69903229 4.609375 17.95703125 C4.63417938 19.84418098 4.63417938 19.84418098 4.65948486 21.76945496 C4.69978497 25.10196091 4.72313536 28.43370343 4.73822021 31.76635742 C4.75782599 35.17186968 4.79979186 38.57709957 4.83984375 41.98242188 C4.91379231 48.65487896 4.96539609 55.32722915 5 62 C7.09401513 59.91952498 9.18618766 57.83725171 11.27734375 55.75390625 C11.86753296 55.16790649 12.45772217 54.58190674 13.0657959 53.97814941 C16.00529105 51.04689103 18.87916684 48.10936503 21.5625 44.9375 C25.01364389 40.86669935 28.80219987 37.17089927 32.59570312 33.42382812 C35.9507723 30.09401668 39.09733029 26.6605969 42.16015625 23.05859375 C44.5049357 20.43502948 46.99607734 17.96985283 49.5 15.5 C53.38578811 11.66225048 57.07090236 7.75723992 60.5625 3.55859375 C62.85949567 1.06810116 64.57680198 0.05402528 67.9375 -0.375 C71 0 71 0 73.4375 1.625 C75 4 75 4 74.84571838 6.86489868 C73.86655128 10.49469808 72.69090631 11.91642065 70.03100586 14.53662109 C68.76981178 15.79724869 68.76981178 15.79724869 67.48313904 17.08334351 C66.56960159 17.97107452 65.65606415 18.85880554 64.71484375 19.7734375 C63.78402481 20.6971817 62.85320587 21.6209259 61.8941803 22.57266235 C59.4275963 25.02021818 56.9463676 27.45238235 54.46173096 29.8815918 C51.92571404 32.36632579 49.40391259 34.86539675 46.88085938 37.36328125 C41.9343535 42.25627359 36.9722204 47.13314451 32 52 C32.93895812 53.42046237 33.8795464 54.83984724 34.82080078 56.25878906 C35.34441193 57.04932678 35.86802307 57.8398645 36.40750122 58.65435791 C38.76375664 62.12496145 41.3036262 65.43736233 43.875 68.75 C45.01708205 70.23425577 46.15900148 71.71863669 47.30078125 73.203125 C48.53384333 74.80209169 49.76691664 76.40104972 51 78 C56.37049647 84.97217669 61.71116965 91.96562807 67 99 C67.61987793 99.82226074 68.23975586 100.64452148 68.87841797 101.49169922 C70.60301623 103.79473996 72.30524552 106.11244371 74 108.4375 C74.51054932 109.11683594 75.02109863 109.79617187 75.54711914 110.49609375 C78.35763347 114.41255411 79.77478361 116.99711153 79 122 C77.4375 123.9375 77.4375 123.9375 75 125 C71.44437904 125.08609252 68.99405985 124.89526078 66.28051758 122.45141602 C64.47596628 120.30284008 62.82175992 118.09330824 61.1875 115.8125 C60.57712891 114.99386475 59.96675781 114.17522949 59.33789062 113.33178711 C57.53622619 110.90328175 55.76382603 108.45607757 54 106 C53.54189941 105.36771484 53.08379883 104.73542969 52.61181641 104.08398438 C50.5991913 101.3039328 48.60858163 98.50946455 46.6328125 95.703125 C43.44510896 91.19198863 40.15767884 86.7547407 36.875 82.3125 C31.88803803 75.56203653 26.92006369 68.79946691 22 62 C21.30398682 62.72179443 20.60797363 63.44358887 19.89086914 64.18725586 C17.96948672 66.12218853 16.10236589 67.69273704 13.91967773 69.37719727 C8.87325269 73.40996101 4.95087827 77.10853199 4.01611328 83.73388672 C3.63766708 89.1420299 3.82906575 94.52684455 4.0625 99.9375 C4.14424745 102.73017607 4.20831862 105.52119436 4.24473572 108.31483459 C4.2710596 110.04065361 4.32514334 111.76634342 4.41114807 113.49021912 C4.51693536 117.82241915 4.39359405 119.4726453 1.71264648 123.06469727 C-1 125 -1 125 -4.6875 125 C-8 124 -8 124 -10 121 C-10.25726891 118.8147974 -10.25726891 118.8147974 -10.26742554 116.22438049 C-10.27595551 115.24158112 -10.28448547 114.25878174 -10.29327393 113.24620056 C-10.29236755 112.16923416 -10.29146118 111.09226776 -10.29052734 109.98266602 C-10.29724457 108.84748535 -10.30396179 107.71230469 -10.31088257 106.54272461 C-10.32992416 102.77974098 -10.33378977 99.01693509 -10.3359375 95.25390625 C-10.34236067 92.64460679 -10.34908866 90.03530806 -10.35610962 87.42601013 C-10.36890164 81.95253335 -10.37187433 76.47910495 -10.37060547 71.00561523 C-10.36940362 64.67925917 -10.39051334 58.35324403 -10.4220928 52.02697426 C-10.45139206 45.9406133 -10.45858175 39.85441603 -10.45738602 33.7679882 C-10.45975085 31.17836043 -10.46862359 28.58873031 -10.48405075 25.99914742 C-10.50358621 22.3813843 -10.4979211 18.76450503 -10.48583984 15.14672852 C-10.49707886 14.07178635 -10.50831787 12.99684418 -10.51989746 11.889328 C-10.45838302 4.66200886 -10.45838302 4.66200886 -8.15713501 1.33848572 C-5.15966416 -0.52142194 -3.45976544 -0.64870602 0 0 Z " fill="#4AA6E5" transform="translate(160,35)"/>
<path d="M0 0 C0.80932983 -0.00570007 1.61865967 -0.01140015 2.45251465 -0.01727295 C4.16722311 -0.02670982 5.8819496 -0.03325171 7.59667969 -0.03710938 C10.18197765 -0.04673805 12.76645357 -0.07774078 15.3515625 -0.109375 C29.4183117 -0.20073407 40.8978206 0.64887486 51.3984375 10.83203125 C58.29278492 18.22373209 61.07308511 27.03787349 60.86328125 37.0703125 C60.14109737 47.72740434 55.22196576 55.398084 47.58203125 62.69921875 C42.25253389 67.00080467 36.25119259 69.33725886 29.40917969 69.31665039 C28.56861023 69.31657486 27.72804077 69.31649933 26.86199951 69.31642151 C25.51491913 69.30867958 25.51491913 69.30867958 24.140625 69.30078125 C23.2140509 69.2993663 22.28747681 69.29795135 21.33282471 69.29649353 C18.37810008 69.29090324 15.42345167 69.2783525 12.46875 69.265625 C10.46354276 69.26060875 8.45833433 69.25604606 6.453125 69.25195312 C1.54163737 69.24093699 -3.3697934 69.223679 -8.28125 69.203125 C-8.27236755 69.80589767 -8.26348511 70.40867035 -8.2543335 71.02970886 C-8.16578878 77.30755117 -8.10548611 83.58521588 -8.06152344 89.86352539 C-8.04141735 92.20604661 -8.01412834 94.5485177 -7.97949219 96.89086914 C-7.93093159 100.25940323 -7.90827078 103.62727331 -7.890625 106.99609375 C-7.86997986 108.04210251 -7.84933472 109.08811127 -7.82806396 110.16581726 C-7.82667731 114.6666572 -7.82757417 117.42040756 -10.11816406 121.37231445 C-12.28125 123.203125 -12.28125 123.203125 -15.28125 123.703125 C-18.59419928 123.15096679 -19.86723619 122.48564979 -22.28125 120.203125 C-22.78740788 118.16965199 -22.78740788 118.16965199 -22.7959137 115.7960968 C-22.81500038 114.44415977 -22.81500038 114.44415977 -22.83447266 113.06491089 C-22.82794678 112.07838531 -22.8214209 111.09185974 -22.81469727 110.07543945 C-22.82331284 109.03446609 -22.83192841 107.99349274 -22.84080505 106.92097473 C-22.86356254 103.46920101 -22.85670538 100.01823313 -22.84765625 96.56640625 C-22.85288928 94.16846983 -22.85916458 91.77053547 -22.86643982 89.37260437 C-22.87686349 84.33953184 -22.87225683 79.30674165 -22.85766602 74.27368164 C-22.84051802 67.83182062 -22.86391493 61.39085484 -22.89915562 54.94909382 C-22.92115255 49.99299739 -22.91968174 45.03711413 -22.9113903 40.08098412 C-22.91057123 37.70678924 -22.91742612 35.33257863 -22.93216133 32.95842934 C-22.94963858 29.63099472 -22.93503386 26.30515459 -22.91235352 22.9777832 C-22.92404572 22.00137878 -22.93573792 21.02497437 -22.94778442 20.01898193 C-22.85858175 13.56603987 -21.49366375 9.17594111 -17.28125 4.203125 C-11.87063541 0.11217251 -6.58847078 0.0362268 0 0 Z M-6.97036743 14.46987915 C-8.57978643 16.59784916 -8.64624599 17.6618926 -8.62182617 20.30737305 C-8.62159958 21.12799728 -8.62137299 21.94862152 -8.62113953 22.79411316 C-8.60565567 23.67545425 -8.59017181 24.55679535 -8.57421875 25.46484375 C-8.56997391 26.37063675 -8.56572906 27.27642975 -8.56135559 28.20967102 C-8.54455848 31.10362433 -8.5069045 33.99688206 -8.46875 36.890625 C-8.45370449 38.85220349 -8.44001585 40.81379289 -8.42773438 42.77539062 C-8.39465157 47.58490356 -8.34286222 52.39389633 -8.28125 57.203125 C-3.30081391 57.27773971 1.67929089 57.33194487 6.66015625 57.36791992 C8.35162022 57.38293005 10.04304578 57.40334463 11.734375 57.42944336 C14.17718024 57.46617186 16.6194673 57.48292911 19.0625 57.49609375 C19.80866577 57.51157761 20.55483154 57.52706146 21.3236084 57.54301453 C29.14380669 57.54547515 35.47315918 55.15290965 41.24609375 49.80078125 C45.32624737 45.37430159 46.72988228 40.13663247 46.71875 34.203125 C45.68007422 26.50554146 42.4824196 21.61671656 36.73046875 16.53515625 C31.77627016 13.2548034 26.58772353 12.89484476 20.80078125 12.90234375 C20.06172043 12.89805862 19.32265961 12.8937735 18.561203 12.88935852 C17.00899272 12.88364564 15.45675569 12.88309238 13.90454102 12.88745117 C11.52769887 12.89062975 9.15208089 12.86705212 6.77539062 12.84179688 C5.2630224 12.83952544 3.75065084 12.83881966 2.23828125 12.83984375 C1.17417778 12.82602913 1.17417778 12.82602913 0.08857727 12.81193542 C-3.69171278 12.80413294 -3.69171278 12.80413294 -6.97036743 14.46987915 Z " fill="#49A6E6" transform="translate(499.28125,36.796875)"/>
<path d="M0 0 C2.43341514 2.43341514 2.24725779 3.74362294 2.29008484 7.06552124 C2.28910294 7.76883575 2.28812103 8.47215027 2.28710938 9.19677734 C2.29394241 9.93857239 2.30077545 10.68036743 2.30781555 11.44464111 C2.32142638 13.05971612 2.33046497 14.67483452 2.33552551 16.28995895 C2.34381463 18.8559435 2.36432662 21.4215721 2.38806152 23.98745728 C2.43636557 29.44991842 2.4691698 34.91241606 2.5 40.375 C2.53579767 46.67316126 2.57810549 52.97115305 2.63594055 59.26915359 C2.65580157 61.77926262 2.66429127 64.28923729 2.67224121 66.79940796 C2.7187491 86.04778554 2.7187491 86.04778554 11.3125 102.75 C20.54066851 110.47590852 30.41177481 111.02633234 42 110 C48.43958816 108.3880149 54.18714058 104.87971917 57.765625 99.1953125 C58.25546875 98.18210937 58.7453125 97.16890625 59.25 96.125 C60.00023437 94.61292969 60.00023437 94.61292969 60.765625 93.0703125 C63.03169177 87.43382995 63.14925759 81.84719495 63.15771484 75.83911133 C63.16279556 75.04326126 63.16787628 74.24741119 63.17311096 73.42744446 C63.18376701 71.70872388 63.19240565 69.98998984 63.19923019 68.27124977 C63.21106792 65.55207293 63.23052918 62.83305143 63.25234985 60.11393738 C63.31383085 52.38631317 63.36812899 44.65870985 63.40136719 36.9309082 C63.42227235 32.19709438 63.45752974 27.46357251 63.50212479 22.72992516 C63.51630487 20.92660637 63.52501174 19.12323603 63.52817917 17.31986427 C63.53306989 14.80383137 63.55617523 12.28857999 63.58349609 9.77270508 C63.57898689 8.65288239 63.57898689 8.65288239 63.5743866 7.51043701 C63.62162127 4.59190049 63.65834676 2.50929115 65.31118774 0.04545593 C68.2756919 -1.78971458 70.63205978 -1.47269336 74 -1 C76.90117312 1.74413411 77.91478542 3.41539159 78.49447632 7.39231873 C78.49162628 8.68912064 78.48877625 9.98592255 78.48583984 11.32202148 C78.48963654 12.04153488 78.49343323 12.76104828 78.49734497 13.50236511 C78.50473821 15.875722 78.48336817 18.24784588 78.4609375 20.62109375 C78.45854985 22.28434608 78.45764843 23.94760114 78.4581604 25.6108551 C78.45503331 29.10036073 78.43848964 32.5894553 78.41162109 36.07885742 C78.37787945 40.51325688 78.36998611 44.94720015 78.37151146 49.38171291 C78.3709623 52.82137776 78.35990495 56.26094628 78.34550858 59.70057869 C78.33921641 61.33295019 78.33521981 62.96533244 78.33372116 64.59771538 C78.30148506 81.37755487 78.00068346 98.42288703 65.73828125 111.4140625 C55.11108245 121.10988882 43.25850966 125.02056927 28.9375 124.3828125 C19.2377575 123.43978198 11.19392233 120.61228606 4 114 C3.31164062 113.401875 2.62328125 112.80375 1.9140625 112.1875 C-5.23325621 105.59815041 -10.25499566 96.82743843 -11.19196701 86.98308563 C-11.27219759 84.74226704 -11.2931208 82.50885877 -11.29052734 80.26660156 C-11.29724457 79.42183762 -11.30396179 78.57707367 -11.31088257 77.70671082 C-11.32977041 74.93462131 -11.33378088 72.1627747 -11.3359375 69.390625 C-11.3423676 67.45725405 -11.34909612 65.52388406 -11.35610962 63.59051514 C-11.36805618 59.54908997 -11.37179272 55.50775016 -11.37060547 51.46630859 C-11.37040145 46.28194273 -11.39780031 41.09811995 -11.43214989 35.91388321 C-11.45434642 31.9265286 -11.45844539 27.93930675 -11.45738602 23.95189667 C-11.4597492 22.03967146 -11.46861285 20.12744298 -11.48405075 18.21527863 C-11.5035814 15.5483988 -11.49792619 12.8827182 -11.48583984 10.21582031 C-11.49707886 9.4240892 -11.50831787 8.63235809 -11.51989746 7.81663513 C-11.45863928 2.51493427 -11.45863928 2.51493427 -9.19619751 -0.02520752 C-5.88480243 -1.49498563 -3.45115381 -0.83083332 0 0 Z " fill="#49A6E6" transform="translate(371,36)"/>
<path d="M0 0 C3.96220871 3.3961789 4.49510792 4.90778181 5 10.125 C4.88735068 14.43785966 3.45117939 16.95279071 0.625 20.25 C-2.36312362 22.59781141 -5.59411188 22.66825081 -9.34375 22.5703125 C-13.41825238 21.92779482 -16.25254791 19.67857538 -18.75 16.5 C-20.19899408 11.28362133 -20.07553657 7.60103481 -17.625 2.875 C-12.72832137 -2.83779173 -6.58393652 -3.41389301 0 0 Z " fill="#4BA6E6" transform="translate(74.375,162.75)"/>
<path d="M0 0 C3.96220871 3.3961789 4.49510792 4.90778181 5 10.125 C4.88735068 14.43785966 3.45117939 16.95279071 0.625 20.25 C-2.36312362 22.59781141 -5.59411188 22.66825081 -9.34375 22.5703125 C-13.41825238 21.92779482 -16.25254791 19.67857538 -18.75 16.5 C-20.19899408 11.28362133 -20.07553657 7.60103481 -17.625 2.875 C-12.72832137 -2.83779173 -6.58393652 -3.41389301 0 0 Z " fill="#4BA6E6" transform="translate(30.375,161.75)"/>
<path d="M0 0 C0.93199219 -0.00128906 1.86398438 -0.00257812 2.82421875 -0.00390625 C4.28794922 0.00189453 4.28794922 0.00189453 5.78125 0.0078125 C6.75707031 0.00394531 7.73289062 0.00007812 8.73828125 -0.00390625 C10.13626953 -0.00197266 10.13626953 -0.00197266 11.5625 0 C12.41908203 0.00112793 13.27566406 0.00225586 14.15820312 0.00341797 C16.28125 0.1328125 16.28125 0.1328125 18.28125 1.1328125 C18.28125 2.7828125 18.28125 4.4328125 18.28125 6.1328125 C15.85233818 7.34726841 14.27405557 7.26205448 11.5625 7.265625 C10.63050781 7.26691406 9.69851562 7.26820312 8.73828125 7.26953125 C7.76246094 7.26566406 6.78664063 7.26179688 5.78125 7.2578125 C4.31751953 7.26361328 4.31751953 7.26361328 2.82421875 7.26953125 C1.42623047 7.26759766 1.42623047 7.26759766 0 7.265625 C-0.85658203 7.26449707 -1.71316406 7.26336914 -2.59570312 7.26220703 C-4.71875 7.1328125 -4.71875 7.1328125 -6.71875 6.1328125 C-6.71875 4.4828125 -6.71875 2.8328125 -6.71875 1.1328125 C-4.28983818 -0.08164341 -2.71155557 0.00357052 0 0 Z " fill="#4AA5E5" transform="translate(41.71875,13.8671875)"/>
<path d="M0 0 C1.875 1.0625 1.875 1.0625 3 3 C2.66666667 9.33333333 2.66666667 9.33333333 0 12 C-2.4375 12.375 -2.4375 12.375 -5 12 C-7.2855347 9.87208838 -7.92303658 8.52591672 -8.375 5.4375 C-8 3 -8 3 -6.8125 1.1875 C-4.35092224 -0.42525784 -2.88934264 -0.4334014 0 0 Z " fill="#F5FAFD" transform="translate(70,166)"/>
<path d="M0 0 C1.875 1.0625 1.875 1.0625 3 3 C2.66666667 9.33333333 2.66666667 9.33333333 0 12 C-2.4375 12.375 -2.4375 12.375 -5 12 C-7.2855347 9.87208838 -7.92303658 8.52591672 -8.375 5.4375 C-8 3 -8 3 -6.8125 1.1875 C-4.35092224 -0.42525784 -2.88934264 -0.4334014 0 0 Z " fill="#F5FAFD" transform="translate(25,166)"/>
</svg>
